#N canvas 153 0 1040 994 10;
#N canvas 973 101 930 864 loop 1;
#X obj 573 687 tabread~ faust1;
#X obj 683 696 tabread~ faust2;
#N canvas 0 0 450 300 (subpatch) 0;
#X array faust1 104327 float 2 black black;
#X coords 0 1 104327 -1 200 140 1;
#X restore 95 -2 graph;
#N canvas 0 0 450 300 (subpatch) 0;
#X array faust2 104327 float 2 black black;
#X coords 0 1 104327 -1 200 140 1;
#X restore 304 1 graph;
#X obj 364 249 soundfiler;
#X obj 336 294 f;
#X floatatom 314 353 5 0 0 0 - - -, f 5;
#X obj 283 261 bng 15 250 50 0 empty empty empty 17 7 0 10 -262144
-1 -1;
#X obj 589 136 Scope~ 265 172 256 3 128 -1 1 0 0 0 0 102 255 51 135
135 135 0;
#X msg 256 205 read -resize ./faust.aiff faust1 faust2;
#X obj 539 315 samplerate~;
#X obj 533 272 bng 15 250 50 0 empty empty empty 17 7 0 10 -262144
-1 -1;
#X obj 396 146 t b b;
#X obj 530 204 bng 30 250 50 0 empty empty empty 17 7 0 10 -260113
-1 -1;
#X obj 457 380 expr 1 / (($f1 / 1) / $f2);
#X obj 573 568 line~;
#X msg 577 535 \$1 \, \$2 \$3;
#X obj 460 520 pack 0 0 0;
#X text 626 378 loop hz;
#X obj 520 422 expr ($f1 / 1) / $f2;
#X text 662 421 loop length in s;
#X obj 514 476 * 1000;
#X text 566 475 loop length in ms;
#X text 371 288 loop length in samples;
#X obj 499 564 delay;
#X obj 328 468 bng 100 250 50 0 empty empty empty 17 7 0 10 -135105
-1 -1;
#X obj 527 134 loadbang;
#X obj 678 314 inlet;
#X obj 525 738 outlet~;
#X obj 728 735 outlet~;
#X obj 100 351 send loopLengthInSamples;
#X obj 92 413 send loopLengthInHz;
#X obj 97 456 send loopLengthInSeconds;
#X obj 113 523 send loopLengthInMs;
#X obj 710 474 pack 0 0 0;
#X obj 782 414 /;
#X obj 745 381 t f f;
#X text 76 682 bang inlet starts the infinite loop;
#X obj 674 350 route symbol float;
#X obj 641 399 select start stop;
#X obj 368 693 gate;
#X msg 429 656 1;
#X msg 429 700 0;
#X obj 369 453 t b b;
#X obj 674 516 bng 15 250 50 0 empty empty empty 17 7 0 10 -262144
-1 -1;
#X obj 764 516 bng 15 250 50 0 empty empty empty 17 7 0 10 -262144
-1 -1;
#X obj 779 590 symbol;
#X connect 0 0 28 0;
#X connect 1 0 29 0;
#X connect 4 0 5 0;
#X connect 4 0 30 0;
#X connect 5 0 6 0;
#X connect 5 0 19 0;
#X connect 5 0 17 1;
#X connect 5 0 34 1;
#X connect 6 0 14 0;
#X connect 7 0 5 0;
#X connect 9 0 4 0;
#X connect 10 0 14 1;
#X connect 10 0 19 1;
#X connect 11 0 10 0;
#X connect 12 0 11 0;
#X connect 12 1 9 0;
#X connect 13 0 12 0;
#X connect 14 0 31 0;
#X connect 15 0 0 0;
#X connect 15 0 1 0;
#X connect 16 0 15 0;
#X connect 17 0 16 0;
#X connect 19 0 21 0;
#X connect 19 0 32 0;
#X connect 21 0 17 2;
#X connect 21 0 24 1;
#X connect 21 0 33 0;
#X connect 24 0 25 0;
#X connect 25 0 24 0;
#X connect 25 0 40 1;
#X connect 26 0 13 0;
#X connect 27 0 38 0;
#X connect 36 1 35 0;
#X connect 38 1 34 0;
#X connect 38 2 46 0;
#X connect 39 0 43 0;
#X connect 39 0 44 0;
#X connect 39 1 42 0;
#X connect 39 1 45 0;
#X connect 40 0 17 0;
#X connect 41 0 40 0;
#X connect 42 0 40 0;
#X connect 43 0 25 0;
#X connect 43 1 41 0;
#X connect 46 0 39 0;
#X restore 95 111 pd loop;
#X obj 85 164 ezdac~;
#X msg 169 40 stop;
#X msg 27 68 start;
#X connect 0 0 1 0;
#X connect 0 1 1 1;
#X connect 2 0 0 0;
#X connect 3 0 0 0;
