#N canvas 153 164 891 731 10;
#X obj 222 59 tabread~ faust1;
#X obj 325 57 tabread~ faust2;
#N canvas 0 0 450 300 (subpatch) 0;
#X array faust1 104327 float 2 black black;
#X coords 0 1 104327 -1 200 140 1;
#X restore 33 137 graph;
#N canvas 0 0 450 300 (subpatch) 0;
#X array faust2 104327 float 2 black black;
#X coords 0 1 104327 -1 200 140 1;
#X restore 242 140 graph;
#X obj 302 388 soundfiler;
#X obj 274 433 f;
#X obj 551 111 phasor~;
#X floatatom 252 492 5 0 0 0 - - -, f 5;
#X obj 221 400 bng 15 250 50 0 empty empty empty 17 7 0 10 -262144
-1 -1;
#X obj 558 155 *~;
#X floatatom 471 70 5 0 0 0 - - -, f 5;
#X obj 267 116 ezdac~;
#X obj 527 275 Scope~ 265 172 256 3 128 -1 1 0 0 0 0 102 255 51 135
135 135 0;
#X msg 194 344 read -resize ./faust.aiff faust1 faust2;
#X obj 477 454 samplerate~;
#X obj 471 411 bng 15 250 50 0 empty empty empty 17 7 0 10 -262144
-1 -1;
#X obj 334 285 t b b;
#X obj 468 343 bng 30 250 50 0 empty empty empty 17 7 0 10 -260113
-1 -1;
#X obj 395 519 expr 1 / (($f1 / 1) / $f2);
#X connect 0 0 11 0;
#X connect 1 0 11 1;
#X connect 4 0 5 0;
#X connect 5 0 7 0;
#X connect 6 0 9 0;
#X connect 7 0 9 1;
#X connect 7 0 18 0;
#X connect 8 0 5 0;
#X connect 9 0 1 0;
#X connect 9 0 0 0;
#X connect 9 0 12 0;
#X connect 10 0 6 0;
#X connect 13 0 4 0;
#X connect 14 0 18 1;
#X connect 15 0 14 0;
#X connect 16 0 15 0;
#X connect 16 1 13 0;
#X connect 17 0 16 0;
#X connect 18 0 10 0;
