#N canvas 426 0 1040 963 10;
#N canvas 507 30 930 864 loop 1;
#X obj 573 687 tabread~ faust1;
#X obj 683 696 tabread~ faust2;
#N canvas 0 0 450 300 (subpatch) 0;
#X array faust1 104327 float 2 black black;
#X coords 0 1 104327 -1 200 140 1;
#X restore 95 -2 graph;
#N canvas 0 0 450 300 (subpatch) 0;
#X array faust2 104327 float 2 black black;
#X coords 0 1 104327 -1 200 140 1;
#X restore 304 1 graph;
#X obj 364 249 soundfiler;
#X obj 336 294 f;
#X floatatom 314 353 5 0 0 0 - - -, f 5;
#X obj 283 261 bng 15 250 50 0 empty empty empty 17 7 0 10 -262144
-1 -1;
#X msg 256 205 read -resize ./faust.aiff faust1 faust2;
#X obj 539 315 samplerate~;
#X obj 533 272 bng 15 250 50 0 empty empty empty 17 7 0 10 -262144
-1 -1;
#X obj 396 146 t b b;
#X obj 530 204 bng 30 250 50 0 empty empty empty 17 7 0 10 -260113
-1 -1;
#X obj 457 380 expr 1 / (($f1 / 1) / $f2);
#X obj 573 568 line~;
#X msg 577 535 \$1 \, \$2 \$3;
#X obj 460 520 pack 0 0 0;
#X text 626 378 loop hz;
#X obj 520 422 expr ($f1 / 1) / $f2;
#X text 662 421 loop length in s;
#X obj 514 476 * 1000;
#X text 566 475 loop length in ms;
#X text 371 288 loop length in samples;
#X obj 499 564 delay;
#X obj 328 468 bng 100 250 50 0 empty empty empty 17 7 0 10 -135105
-1 -1;
#X obj 527 134 loadbang;
#X obj 653 210 inlet;
#X obj 525 738 outlet~;
#X obj 728 735 outlet~;
#X obj 100 351 send loopLengthInSamples;
#X obj 92 413 send loopLengthInHz;
#X obj 97 456 send loopLengthInSeconds;
#X obj 113 523 send loopLengthInMs;
#X text 76 682 bang inlet starts the infinite loop;
#X obj 649 246 route symbol float;
#X obj 641 399 select start stop;
#X obj 368 693 gate;
#X msg 429 656 1;
#X msg 429 700 0;
#X obj 369 453 t b b;
#X obj 674 516 bng 15 250 50 0 empty empty empty 17 7 0 10 -262144
-1 -1;
#X obj 764 516 bng 15 250 50 0 empty empty empty 17 7 0 10 -262144
-1 -1;
#X obj 779 590 symbol;
#X obj 794 448 expr $f2 - ($f2 * $f1);
#X obj 807 497 pack 0 0 0;
#X obj 819 382 r loopLengthInMs;
#X obj 837 422 f;
#X obj 691 285 t f f b;
#X obj 826 317 r loopLengthInSamples;
#X obj 812 345 f;
#X obj 784 403 expr $f1 * $f2;
#X obj 815 279 r loopLengthInSamples;
#X obj 779 305 f;
#X obj 537 509 t b f;
#X obj 458 702 r loopLengthInMs;
#X obj 431 733 f;
#X obj 830 542 send toBangDelay;
#X obj 588 453 r toBangDelay;
#X obj 424 765 s toBangDelay;
#X connect 0 0 27 0;
#X connect 1 0 28 0;
#X connect 4 0 5 0;
#X connect 4 0 29 0;
#X connect 5 0 6 0;
#X connect 5 0 18 0;
#X connect 5 0 16 1;
#X connect 6 0 13 0;
#X connect 7 0 5 0;
#X connect 8 0 4 0;
#X connect 9 0 13 1;
#X connect 9 0 18 1;
#X connect 10 0 9 0;
#X connect 11 0 10 0;
#X connect 11 1 8 0;
#X connect 12 0 11 0;
#X connect 13 0 30 0;
#X connect 14 0 0 0;
#X connect 14 0 1 0;
#X connect 15 0 14 0;
#X connect 16 0 15 0;
#X connect 18 0 20 0;
#X connect 18 0 31 0;
#X connect 20 0 16 2;
#X connect 20 0 23 1;
#X connect 20 0 32 0;
#X connect 23 0 24 0;
#X connect 24 0 23 0;
#X connect 24 0 36 1;
#X connect 25 0 12 0;
#X connect 26 0 34 0;
#X connect 34 1 47 0;
#X connect 34 2 42 0;
#X connect 35 0 39 0;
#X connect 35 0 40 0;
#X connect 35 1 38 0;
#X connect 35 1 41 0;
#X connect 36 0 16 0;
#X connect 36 0 55 0;
#X connect 37 0 36 0;
#X connect 38 0 36 0;
#X connect 39 0 24 0;
#X connect 39 1 37 0;
#X connect 42 0 35 0;
#X connect 43 0 44 2;
#X connect 43 0 56 0;
#X connect 44 0 15 0;
#X connect 45 0 46 0;
#X connect 46 0 43 1;
#X connect 47 0 50 0;
#X connect 47 1 43 0;
#X connect 47 2 46 0;
#X connect 47 2 52 0;
#X connect 47 2 49 0;
#X connect 48 0 49 0;
#X connect 49 0 50 1;
#X connect 50 0 44 0;
#X connect 51 0 52 0;
#X connect 52 0 44 1;
#X connect 53 0 23 0;
#X connect 53 1 23 1;
#X connect 54 0 55 0;
#X connect 55 0 58 0;
#X connect 57 0 53 0;
#X restore 95 111 pd loop;
#X obj 85 164 ezdac~;
#X msg 169 40 stop;
#X msg 27 68 start;
#X floatatom 262 55 5 0 0 0 - - -, f 5;
#X obj 279 320 metro 1000;
#X obj 356 227 r loopLengthInMs;
#X obj 356 263 f;
#X msg 24 97 1;
#X obj 280 284 tgl 15 0 empty empty empty 17 7 0 10 -262144 -1 -1 0
1;
#X obj 21 122 s toMetroToggle;
#X obj 270 208 r toMetroToggle;
#X obj 173 130 s toMetroToggle;
#X msg 176 105 0;
#X text 325 364 comment;
#X connect 0 0 1 0;
#X connect 0 1 1 1;
#X connect 2 0 0 0;
#X connect 2 0 13 0;
#X connect 3 0 0 0;
#X connect 3 0 8 0;
#X connect 4 0 0 0;
#X connect 6 0 7 0;
#X connect 7 0 5 1;
#X connect 8 0 10 0;
#X connect 9 0 5 0;
#X connect 11 0 9 0;
#X connect 13 0 12 0;
